<svg xmlns="http://www.w3.org/2000/svg" viewBox="0 0 64 64" role="img" aria-label="tiki tiki">
  <defs>
    <linearGradient id="g" x1="8" y1="8" x2="56" y2="56" gradientUnits="userSpaceOnUse">
      <stop stop-color="#ff7a66"/>
      <stop offset="1" stop-color="#ffd166"/>
    </linearGradient>
  </defs>
  <path fill="#111827" d="M13 5h38a8 8 0 0 1 8 8v38a8 8 0 0 1-8 8H13a8 8 0 0 1-8-8V13a8 8 0 0 1 8-8Z"/>
  <path fill="url(#g)" d="M18 17h12v8h-4v18c0 2 1 3 3 3h2v8h-5c-6 0-9-4-9-10V25h-4v-8h5Zm22 0h11v8h-3v18c0 2 1 3 3 3h1v8h-4c-7 0-10-4-10-10V25h-4v-8h6Z"/>
  <circle cx="32" cy="12" r="3" fill="#83f3ca"/>
</svg>
